<mxfile host="app.diagrams.net" modified="2023-10-24T15:58:23.444Z" agent="Mozilla/5.0 (Windows NT 10.0; Win64; x64) AppleWebKit/537.36 (KHTML, like Gecko) Chrome/117.0.0.0 Safari/537.36 Edg/117.0.2045.31" etag="7c5SMpoxssx_V3Gr44KN" version="22.0.6" type="device">
  <diagram name="Page-1" id="rGmIJCDmmFJFTNqrKPJ_">
    <mxGraphModel dx="808" dy="476" grid="1" gridSize="10" guides="1" tooltips="1" connect="1" arrows="1" fold="1" page="1" pageScale="1" pageWidth="1169" pageHeight="827" math="0" shadow="0">
      <root>
        <mxCell id="0" />
        <mxCell id="1" parent="0" />
        <mxCell id="ZkCvH2NiR-B9nWH_DVVd-18" value="Publication" style="whiteSpace=wrap;html=1;align=center;" parent="1" vertex="1">
          <mxGeometry x="654" y="304" width="100" height="40" as="geometry" />
        </mxCell>
        <mxCell id="ZkCvH2NiR-B9nWH_DVVd-19" value="Book" style="whiteSpace=wrap;html=1;align=center;" parent="1" vertex="1">
          <mxGeometry x="535" y="434" width="100" height="40" as="geometry" />
        </mxCell>
        <mxCell id="ZkCvH2NiR-B9nWH_DVVd-20" value="Inproceedings" style="whiteSpace=wrap;html=1;align=center;" parent="1" vertex="1">
          <mxGeometry x="595" y="514" width="100" height="40" as="geometry" />
        </mxCell>
        <mxCell id="ZkCvH2NiR-B9nWH_DVVd-21" value="Incollection" style="whiteSpace=wrap;html=1;align=center;" parent="1" vertex="1">
          <mxGeometry x="709" y="514" width="100" height="40" as="geometry" />
        </mxCell>
        <mxCell id="ZkCvH2NiR-B9nWH_DVVd-22" value="Article" style="whiteSpace=wrap;html=1;align=center;" parent="1" vertex="1">
          <mxGeometry x="775" y="434" width="100" height="40" as="geometry" />
        </mxCell>
        <mxCell id="ZkCvH2NiR-B9nWH_DVVd-23" value="Author" style="whiteSpace=wrap;html=1;align=center;" parent="1" vertex="1">
          <mxGeometry x="284" y="304" width="100" height="40" as="geometry" />
        </mxCell>
        <mxCell id="ZkCvH2NiR-B9nWH_DVVd-85" style="edgeStyle=orthogonalEdgeStyle;rounded=0;orthogonalLoop=1;jettySize=auto;html=1;exitX=0.5;exitY=1;exitDx=0;exitDy=0;endArrow=none;endFill=0;" parent="1" source="ZkCvH2NiR-B9nWH_DVVd-24" target="ZkCvH2NiR-B9nWH_DVVd-23" edge="1">
          <mxGeometry relative="1" as="geometry" />
        </mxCell>
        <mxCell id="ZkCvH2NiR-B9nWH_DVVd-24" value="name" style="ellipse;whiteSpace=wrap;html=1;align=center;" parent="1" vertex="1">
          <mxGeometry x="275" y="204" width="100" height="40" as="geometry" />
        </mxCell>
        <mxCell id="ZkCvH2NiR-B9nWH_DVVd-84" style="edgeStyle=orthogonalEdgeStyle;rounded=0;orthogonalLoop=1;jettySize=auto;html=1;exitX=0.5;exitY=1;exitDx=0;exitDy=0;entryX=0.25;entryY=0;entryDx=0;entryDy=0;endArrow=none;endFill=0;" parent="1" source="ZkCvH2NiR-B9nWH_DVVd-25" target="ZkCvH2NiR-B9nWH_DVVd-23" edge="1">
          <mxGeometry relative="1" as="geometry">
            <Array as="points">
              <mxPoint x="225" y="294" />
              <mxPoint x="309" y="294" />
            </Array>
          </mxGeometry>
        </mxCell>
        <mxCell id="ZkCvH2NiR-B9nWH_DVVd-25" value="id" style="ellipse;whiteSpace=wrap;html=1;align=center;fontStyle=4;" parent="1" vertex="1">
          <mxGeometry x="175" y="234" width="100" height="40" as="geometry" />
        </mxCell>
        <mxCell id="ZkCvH2NiR-B9nWH_DVVd-26" value="pubid" style="ellipse;whiteSpace=wrap;html=1;align=center;fontStyle=4;" parent="1" vertex="1">
          <mxGeometry x="539" y="234" width="100" height="40" as="geometry" />
        </mxCell>
        <mxCell id="ZkCvH2NiR-B9nWH_DVVd-86" style="edgeStyle=orthogonalEdgeStyle;rounded=0;orthogonalLoop=1;jettySize=auto;html=1;exitX=0.5;exitY=1;exitDx=0;exitDy=0;entryX=0.75;entryY=0;entryDx=0;entryDy=0;endArrow=none;endFill=0;" parent="1" source="ZkCvH2NiR-B9nWH_DVVd-28" target="ZkCvH2NiR-B9nWH_DVVd-23" edge="1">
          <mxGeometry relative="1" as="geometry" />
        </mxCell>
        <mxCell id="ZkCvH2NiR-B9nWH_DVVd-28" value="homepage" style="ellipse;whiteSpace=wrap;html=1;align=center;" parent="1" vertex="1">
          <mxGeometry x="375" y="234" width="100" height="40" as="geometry" />
        </mxCell>
        <mxCell id="ZkCvH2NiR-B9nWH_DVVd-30" value="title" style="ellipse;whiteSpace=wrap;html=1;align=center;" parent="1" vertex="1">
          <mxGeometry x="709" y="194" width="100" height="40" as="geometry" />
        </mxCell>
        <mxCell id="ZkCvH2NiR-B9nWH_DVVd-31" value="year" style="ellipse;whiteSpace=wrap;html=1;align=center;" parent="1" vertex="1">
          <mxGeometry x="769" y="234" width="100" height="40" as="geometry" />
        </mxCell>
        <mxCell id="ZkCvH2NiR-B9nWH_DVVd-32" value="Authored" style="shape=rhombus;perimeter=rhombusPerimeter;whiteSpace=wrap;html=1;align=center;" parent="1" vertex="1">
          <mxGeometry x="459" y="294" width="120" height="60" as="geometry" />
        </mxCell>
        <mxCell id="ZkCvH2NiR-B9nWH_DVVd-60" value="" style="edgeStyle=orthogonalEdgeStyle;rounded=0;orthogonalLoop=1;jettySize=auto;html=1;endArrow=none;endFill=0;" parent="1" source="ZkCvH2NiR-B9nWH_DVVd-46" target="ZkCvH2NiR-B9nWH_DVVd-18" edge="1">
          <mxGeometry relative="1" as="geometry" />
        </mxCell>
        <mxCell id="ZkCvH2NiR-B9nWH_DVVd-62" style="edgeStyle=orthogonalEdgeStyle;rounded=0;orthogonalLoop=1;jettySize=auto;html=1;exitX=0;exitY=0.25;exitDx=0;exitDy=0;endArrow=none;endFill=0;" parent="1" source="ZkCvH2NiR-B9nWH_DVVd-46" target="ZkCvH2NiR-B9nWH_DVVd-19" edge="1">
          <mxGeometry relative="1" as="geometry" />
        </mxCell>
        <mxCell id="ZkCvH2NiR-B9nWH_DVVd-63" style="edgeStyle=orthogonalEdgeStyle;rounded=0;orthogonalLoop=1;jettySize=auto;html=1;exitX=0;exitY=0.75;exitDx=0;exitDy=0;endArrow=none;endFill=0;" parent="1" source="ZkCvH2NiR-B9nWH_DVVd-46" target="ZkCvH2NiR-B9nWH_DVVd-22" edge="1">
          <mxGeometry relative="1" as="geometry" />
        </mxCell>
        <mxCell id="ZkCvH2NiR-B9nWH_DVVd-46" value="ISA" style="triangle;whiteSpace=wrap;html=1;direction=north;" parent="1" vertex="1">
          <mxGeometry x="674" y="374" width="60" height="60" as="geometry" />
        </mxCell>
        <mxCell id="ZkCvH2NiR-B9nWH_DVVd-51" style="edgeStyle=orthogonalEdgeStyle;rounded=0;orthogonalLoop=1;jettySize=auto;html=1;exitX=0.5;exitY=0;exitDx=0;exitDy=0;entryX=0;entryY=0.35;entryDx=0;entryDy=0;entryPerimeter=0;endArrow=none;endFill=0;" parent="1" source="ZkCvH2NiR-B9nWH_DVVd-20" target="ZkCvH2NiR-B9nWH_DVVd-46" edge="1">
          <mxGeometry relative="1" as="geometry" />
        </mxCell>
        <mxCell id="ZkCvH2NiR-B9nWH_DVVd-52" style="edgeStyle=orthogonalEdgeStyle;rounded=0;orthogonalLoop=1;jettySize=auto;html=1;exitX=0.5;exitY=0;exitDx=0;exitDy=0;entryX=0;entryY=0.683;entryDx=0;entryDy=0;entryPerimeter=0;endArrow=none;endFill=0;" parent="1" source="ZkCvH2NiR-B9nWH_DVVd-21" target="ZkCvH2NiR-B9nWH_DVVd-46" edge="1">
          <mxGeometry relative="1" as="geometry" />
        </mxCell>
        <mxCell id="ZkCvH2NiR-B9nWH_DVVd-96" style="edgeStyle=orthogonalEdgeStyle;rounded=0;orthogonalLoop=1;jettySize=auto;html=1;exitX=0;exitY=0.5;exitDx=0;exitDy=0;entryX=0.25;entryY=0;entryDx=0;entryDy=0;endArrow=none;endFill=0;" parent="1" source="ZkCvH2NiR-B9nWH_DVVd-64" target="ZkCvH2NiR-B9nWH_DVVd-22" edge="1">
          <mxGeometry relative="1" as="geometry" />
        </mxCell>
        <mxCell id="ZkCvH2NiR-B9nWH_DVVd-64" value="journal" style="ellipse;whiteSpace=wrap;html=1;align=center;" parent="1" vertex="1">
          <mxGeometry x="825" y="374" width="100" height="40" as="geometry" />
        </mxCell>
        <mxCell id="ZkCvH2NiR-B9nWH_DVVd-97" style="edgeStyle=orthogonalEdgeStyle;rounded=0;orthogonalLoop=1;jettySize=auto;html=1;exitX=0;exitY=0.5;exitDx=0;exitDy=0;entryX=1;entryY=0.5;entryDx=0;entryDy=0;endArrow=none;endFill=0;" parent="1" source="ZkCvH2NiR-B9nWH_DVVd-69" target="ZkCvH2NiR-B9nWH_DVVd-22" edge="1">
          <mxGeometry relative="1" as="geometry">
            <Array as="points">
              <mxPoint x="885" y="434" />
              <mxPoint x="885" y="454" />
            </Array>
          </mxGeometry>
        </mxCell>
        <mxCell id="ZkCvH2NiR-B9nWH_DVVd-69" value="month" style="ellipse;whiteSpace=wrap;html=1;align=center;" parent="1" vertex="1">
          <mxGeometry x="895" y="414" width="100" height="40" as="geometry" />
        </mxCell>
        <mxCell id="ZkCvH2NiR-B9nWH_DVVd-100" style="edgeStyle=orthogonalEdgeStyle;rounded=0;orthogonalLoop=1;jettySize=auto;html=1;exitX=0;exitY=0.5;exitDx=0;exitDy=0;entryX=0.75;entryY=1;entryDx=0;entryDy=0;endArrow=none;endFill=0;" parent="1" source="ZkCvH2NiR-B9nWH_DVVd-70" target="ZkCvH2NiR-B9nWH_DVVd-22" edge="1">
          <mxGeometry relative="1" as="geometry">
            <Array as="points">
              <mxPoint x="850" y="484" />
            </Array>
          </mxGeometry>
        </mxCell>
        <mxCell id="ZkCvH2NiR-B9nWH_DVVd-70" value="volume" style="ellipse;whiteSpace=wrap;html=1;align=center;" parent="1" vertex="1">
          <mxGeometry x="895" y="464" width="100" height="40" as="geometry" />
        </mxCell>
        <mxCell id="ZkCvH2NiR-B9nWH_DVVd-101" style="edgeStyle=orthogonalEdgeStyle;rounded=0;orthogonalLoop=1;jettySize=auto;html=1;exitX=0;exitY=0;exitDx=0;exitDy=0;entryX=0.25;entryY=1;entryDx=0;entryDy=0;endArrow=none;endFill=0;" parent="1" source="ZkCvH2NiR-B9nWH_DVVd-71" target="ZkCvH2NiR-B9nWH_DVVd-22" edge="1">
          <mxGeometry relative="1" as="geometry">
            <Array as="points">
              <mxPoint x="840" y="484" />
              <mxPoint x="800" y="484" />
            </Array>
          </mxGeometry>
        </mxCell>
        <mxCell id="ZkCvH2NiR-B9nWH_DVVd-71" value="number" style="ellipse;whiteSpace=wrap;html=1;align=center;" parent="1" vertex="1">
          <mxGeometry x="825" y="504" width="100" height="40" as="geometry" />
        </mxCell>
        <mxCell id="ZkCvH2NiR-B9nWH_DVVd-109" style="edgeStyle=orthogonalEdgeStyle;rounded=0;orthogonalLoop=1;jettySize=auto;html=1;exitX=0.5;exitY=0;exitDx=0;exitDy=0;entryX=0.5;entryY=1;entryDx=0;entryDy=0;endArrow=none;endFill=0;" parent="1" source="ZkCvH2NiR-B9nWH_DVVd-72" target="ZkCvH2NiR-B9nWH_DVVd-21" edge="1">
          <mxGeometry relative="1" as="geometry" />
        </mxCell>
        <mxCell id="ZkCvH2NiR-B9nWH_DVVd-72" value="publisher" style="ellipse;whiteSpace=wrap;html=1;align=center;" parent="1" vertex="1">
          <mxGeometry x="709" y="594" width="100" height="40" as="geometry" />
        </mxCell>
        <mxCell id="ZkCvH2NiR-B9nWH_DVVd-110" style="edgeStyle=orthogonalEdgeStyle;rounded=0;orthogonalLoop=1;jettySize=auto;html=1;exitX=0.5;exitY=0;exitDx=0;exitDy=0;entryX=0.75;entryY=1;entryDx=0;entryDy=0;endArrow=none;endFill=0;" parent="1" source="ZkCvH2NiR-B9nWH_DVVd-73" target="ZkCvH2NiR-B9nWH_DVVd-21" edge="1">
          <mxGeometry relative="1" as="geometry" />
        </mxCell>
        <mxCell id="ZkCvH2NiR-B9nWH_DVVd-73" value="isbn" style="ellipse;whiteSpace=wrap;html=1;align=center;" parent="1" vertex="1">
          <mxGeometry x="825" y="594" width="100" height="40" as="geometry" />
        </mxCell>
        <mxCell id="ZkCvH2NiR-B9nWH_DVVd-108" style="edgeStyle=orthogonalEdgeStyle;rounded=0;orthogonalLoop=1;jettySize=auto;html=1;exitX=0.5;exitY=0;exitDx=0;exitDy=0;entryX=0.25;entryY=1;entryDx=0;entryDy=0;endArrow=none;endFill=0;" parent="1" source="ZkCvH2NiR-B9nWH_DVVd-74" target="ZkCvH2NiR-B9nWH_DVVd-21" edge="1">
          <mxGeometry relative="1" as="geometry" />
        </mxCell>
        <mxCell id="ZkCvH2NiR-B9nWH_DVVd-74" value="booktitle" style="ellipse;whiteSpace=wrap;html=1;align=center;" parent="1" vertex="1">
          <mxGeometry x="595" y="594" width="100" height="40" as="geometry" />
        </mxCell>
        <mxCell id="ZkCvH2NiR-B9nWH_DVVd-105" style="edgeStyle=orthogonalEdgeStyle;rounded=0;orthogonalLoop=1;jettySize=auto;html=1;exitX=1;exitY=0.5;exitDx=0;exitDy=0;entryX=0.039;entryY=0.998;entryDx=0;entryDy=0;endArrow=none;endFill=0;entryPerimeter=0;" parent="1" source="ZkCvH2NiR-B9nWH_DVVd-75" target="ZkCvH2NiR-B9nWH_DVVd-20" edge="1">
          <mxGeometry relative="1" as="geometry" />
        </mxCell>
        <mxCell id="ZkCvH2NiR-B9nWH_DVVd-75" value="editor" style="ellipse;whiteSpace=wrap;html=1;align=center;" parent="1" vertex="1">
          <mxGeometry x="476" y="539" width="100" height="40" as="geometry" />
        </mxCell>
        <mxCell id="ZkCvH2NiR-B9nWH_DVVd-106" style="edgeStyle=orthogonalEdgeStyle;rounded=0;orthogonalLoop=1;jettySize=auto;html=1;exitX=1;exitY=0.5;exitDx=0;exitDy=0;entryX=0.041;entryY=-0.002;entryDx=0;entryDy=0;endArrow=none;endFill=0;entryPerimeter=0;" parent="1" source="ZkCvH2NiR-B9nWH_DVVd-76" target="ZkCvH2NiR-B9nWH_DVVd-20" edge="1">
          <mxGeometry relative="1" as="geometry" />
        </mxCell>
        <mxCell id="ZkCvH2NiR-B9nWH_DVVd-76" value="booktitle" style="ellipse;whiteSpace=wrap;html=1;align=center;" parent="1" vertex="1">
          <mxGeometry x="475" y="489" width="100" height="40" as="geometry" />
        </mxCell>
        <mxCell id="ZkCvH2NiR-B9nWH_DVVd-92" style="edgeStyle=orthogonalEdgeStyle;rounded=0;orthogonalLoop=1;jettySize=auto;html=1;exitX=1;exitY=0.5;exitDx=0;exitDy=0;entryX=0.25;entryY=0;entryDx=0;entryDy=0;endArrow=none;endFill=0;" parent="1" source="ZkCvH2NiR-B9nWH_DVVd-77" target="ZkCvH2NiR-B9nWH_DVVd-19" edge="1">
          <mxGeometry relative="1" as="geometry" />
        </mxCell>
        <mxCell id="ZkCvH2NiR-B9nWH_DVVd-77" value="publisher" style="ellipse;whiteSpace=wrap;html=1;align=center;" parent="1" vertex="1">
          <mxGeometry x="425" y="394" width="100" height="40" as="geometry" />
        </mxCell>
        <mxCell id="ZkCvH2NiR-B9nWH_DVVd-93" style="edgeStyle=orthogonalEdgeStyle;rounded=0;orthogonalLoop=1;jettySize=auto;html=1;exitX=0.5;exitY=1;exitDx=0;exitDy=0;entryX=0.75;entryY=0;entryDx=0;entryDy=0;endArrow=none;endFill=0;" parent="1" source="ZkCvH2NiR-B9nWH_DVVd-78" target="ZkCvH2NiR-B9nWH_DVVd-19" edge="1">
          <mxGeometry relative="1" as="geometry" />
        </mxCell>
        <mxCell id="ZkCvH2NiR-B9nWH_DVVd-78" value="isbn" style="ellipse;whiteSpace=wrap;html=1;align=center;" parent="1" vertex="1">
          <mxGeometry x="549" y="374" width="100" height="40" as="geometry" />
        </mxCell>
        <mxCell id="ZkCvH2NiR-B9nWH_DVVd-87" style="edgeStyle=orthogonalEdgeStyle;rounded=0;orthogonalLoop=1;jettySize=auto;html=1;exitX=0.5;exitY=1;exitDx=0;exitDy=0;entryX=0.139;entryY=-0.006;entryDx=0;entryDy=0;entryPerimeter=0;endArrow=none;endFill=0;" parent="1" source="ZkCvH2NiR-B9nWH_DVVd-26" target="ZkCvH2NiR-B9nWH_DVVd-18" edge="1">
          <mxGeometry relative="1" as="geometry">
            <Array as="points">
              <mxPoint x="589" y="294" />
              <mxPoint x="668" y="294" />
            </Array>
          </mxGeometry>
        </mxCell>
        <mxCell id="ZkCvH2NiR-B9nWH_DVVd-88" style="edgeStyle=orthogonalEdgeStyle;rounded=0;orthogonalLoop=1;jettySize=auto;html=1;exitX=0.5;exitY=1;exitDx=0;exitDy=0;entryX=0.377;entryY=0.012;entryDx=0;entryDy=0;entryPerimeter=0;endArrow=none;endFill=0;" parent="1" source="qYbSyQAhKfylTp0iU88p-1" target="ZkCvH2NiR-B9nWH_DVVd-18" edge="1">
          <mxGeometry relative="1" as="geometry">
            <mxPoint x="655" y="234" as="sourcePoint" />
          </mxGeometry>
        </mxCell>
        <mxCell id="ZkCvH2NiR-B9nWH_DVVd-89" style="edgeStyle=orthogonalEdgeStyle;rounded=0;orthogonalLoop=1;jettySize=auto;html=1;exitX=0.5;exitY=1;exitDx=0;exitDy=0;entryX=0.639;entryY=0.003;entryDx=0;entryDy=0;entryPerimeter=0;endArrow=none;endFill=0;" parent="1" source="ZkCvH2NiR-B9nWH_DVVd-30" target="ZkCvH2NiR-B9nWH_DVVd-18" edge="1">
          <mxGeometry relative="1" as="geometry" />
        </mxCell>
        <mxCell id="ZkCvH2NiR-B9nWH_DVVd-91" style="edgeStyle=orthogonalEdgeStyle;rounded=0;orthogonalLoop=1;jettySize=auto;html=1;exitX=0.5;exitY=1;exitDx=0;exitDy=0;entryX=0.88;entryY=0.007;entryDx=0;entryDy=0;entryPerimeter=0;endArrow=none;endFill=0;" parent="1" source="ZkCvH2NiR-B9nWH_DVVd-31" target="ZkCvH2NiR-B9nWH_DVVd-18" edge="1">
          <mxGeometry relative="1" as="geometry">
            <Array as="points">
              <mxPoint x="819" y="294" />
              <mxPoint x="742" y="294" />
            </Array>
          </mxGeometry>
        </mxCell>
        <mxCell id="ZkCvH2NiR-B9nWH_DVVd-114" value="" style="edgeStyle=entityRelationEdgeStyle;fontSize=12;html=1;endArrow=none;startArrow=none;rounded=0;exitX=1;exitY=0.5;exitDx=0;exitDy=0;entryX=0;entryY=0.5;entryDx=0;entryDy=0;startFill=0;endFill=0;" parent="1" edge="1">
          <mxGeometry width="100" height="100" relative="1" as="geometry">
            <mxPoint x="579" y="323.9" as="sourcePoint" />
            <mxPoint x="654" y="323.9" as="targetPoint" />
          </mxGeometry>
        </mxCell>
        <mxCell id="ZkCvH2NiR-B9nWH_DVVd-115" value="M" style="resizable=0;html=1;whiteSpace=wrap;align=left;verticalAlign=bottom;" parent="1" connectable="0" vertex="1">
          <mxGeometry x="608" y="323.8999999999999" as="geometry" />
        </mxCell>
        <mxCell id="ZkCvH2NiR-B9nWH_DVVd-116" value="" style="edgeStyle=entityRelationEdgeStyle;fontSize=12;html=1;endArrow=none;startArrow=none;rounded=0;exitX=1;exitY=0.5;exitDx=0;exitDy=0;entryX=0;entryY=0.5;entryDx=0;entryDy=0;startFill=0;endFill=0;" parent="1" edge="1">
          <mxGeometry width="100" height="100" relative="1" as="geometry">
            <mxPoint x="384" y="323.9" as="sourcePoint" />
            <mxPoint x="459" y="323.9" as="targetPoint" />
          </mxGeometry>
        </mxCell>
        <mxCell id="ZkCvH2NiR-B9nWH_DVVd-117" value="M" style="resizable=0;html=1;whiteSpace=wrap;align=left;verticalAlign=bottom;" parent="1" connectable="0" vertex="1">
          <mxGeometry x="413" y="323.8999999999999" as="geometry" />
        </mxCell>
        <mxCell id="qYbSyQAhKfylTp0iU88p-1" value="pubkey" style="ellipse;whiteSpace=wrap;html=1;align=center;" vertex="1" parent="1">
          <mxGeometry x="600" y="194" width="100" height="40" as="geometry" />
        </mxCell>
      </root>
    </mxGraphModel>
  </diagram>
</mxfile>
